<svg width="338" height="271" viewBox="0 0 338 271" fill="none" xmlns="http://www.w3.org/2000/svg">
<path opacity="0.2" d="M202.5 1.49997C203.48 1.49997 204.458 1.5105 205.434 1.53144L205.466 0.0317898C207.445 0.0742886 209.413 0.159214 211.371 0.285693L211.274 1.78257C213.226 1.90875 215.168 2.07675 217.096 2.28567L217.258 0.794391C219.224 1.00735 221.178 1.26237 223.118 1.55853L222.891 3.04135C224.826 3.3367 226.747 3.67342 228.653 4.05057L228.944 2.57909C230.885 2.96292 232.81 3.38818 234.719 3.8539L234.364 5.31118C236.263 5.77437 238.146 6.27802 240.013 6.82118L240.432 5.38093C242.329 5.93307 244.209 6.52557 246.071 7.15745L245.589 8.57787C247.438 9.20558 249.27 9.87258 251.082 10.5779L251.626 9.18001C253.466 9.89616 255.287 10.6513 257.087 11.4446L256.482 12.8172C258.268 13.6044 260.034 14.4294 261.779 15.2913L262.443 13.9465C264.212 14.8207 265.96 15.7324 267.685 16.6805L266.962 17.995C268.672 18.935 270.359 19.9113 272.022 20.9228L272.802 19.6412C274.488 20.6663 276.149 21.7272 277.786 22.8229L276.951 24.0693C278.572 25.1546 280.169 26.2743 281.739 27.4274L282.627 26.2185C284.216 27.3859 285.779 28.5871 287.315 29.8212L286.375 30.9904C287.895 32.2119 289.388 33.4659 290.853 34.7513L291.842 33.6239C293.324 34.9243 294.777 36.2565 296.2 37.6194L295.163 38.7028C296.57 40.0509 297.949 41.4295 299.297 42.8374L300.381 41.8C301.744 43.2233 303.076 44.6764 304.376 46.158L303.249 47.1474C304.534 48.612 305.788 50.1048 307.01 51.6248L308.179 50.6852C309.413 52.2208 310.614 53.7839 311.781 55.3734L310.573 56.2614C311.726 57.8314 312.845 59.4275 313.931 61.0485L315.177 60.2141C316.273 61.8506 317.334 63.5123 318.359 65.1982L317.077 65.9775C318.089 67.6409 319.065 69.3281 320.005 71.038L321.319 70.3153C322.268 72.04 323.179 73.7875 324.053 75.5569L322.709 76.2213C323.571 77.9657 324.396 79.7316 325.183 81.5179L326.555 80.913C327.349 82.7131 328.104 84.5337 328.82 86.3738L327.422 86.9178C328.127 88.7301 328.794 90.5615 329.422 92.4111L330.843 91.929C331.474 93.7908 332.067 95.6709 332.619 97.5681L331.179 97.9872C331.722 99.8536 332.226 101.737 332.689 103.636L334.146 103.281C334.612 105.19 335.037 107.115 335.421 109.056L333.949 109.347C334.327 111.253 334.663 113.174 334.959 115.109L336.441 114.882C336.738 116.822 336.993 118.776 337.206 120.742L335.714 120.904C335.923 122.832 336.091 124.774 336.217 126.726L337.714 126.629C337.841 128.587 337.926 130.555 337.968 132.534L336.468 132.566C336.489 133.542 336.5 134.52 336.5 135.5C336.5 136.48 336.489 137.458 336.468 138.434L337.968 138.466C337.926 140.445 337.841 142.413 337.714 144.371L336.217 144.274C336.091 146.227 335.923 148.168 335.714 150.096L337.206 150.258C336.993 152.224 336.738 154.178 336.441 156.118L334.959 155.891C334.663 157.826 334.327 159.747 333.949 161.653L335.421 161.944C335.037 163.885 334.612 165.81 334.146 167.72L332.689 167.364C332.226 169.263 331.722 171.146 331.179 173.013L332.619 173.432C332.067 175.329 331.474 177.209 330.842 179.071L329.422 178.589C328.794 180.439 328.127 182.27 327.422 184.082L328.82 184.626C328.104 186.466 327.349 188.287 326.555 190.087L325.183 189.482C324.396 191.268 323.571 193.034 322.709 194.779L324.053 195.443C323.179 197.213 322.268 198.96 321.319 200.685L320.005 199.962C319.065 201.672 318.089 203.359 317.077 205.022L318.359 205.802C317.334 207.488 316.273 209.149 315.177 210.786L313.931 209.951C312.845 211.573 311.726 213.169 310.573 214.739L311.781 215.627C310.614 217.216 309.413 218.779 308.179 220.315L307.01 219.375C305.788 220.895 304.534 222.388 303.249 223.853L304.376 224.842C303.076 226.324 301.744 227.777 300.381 229.2L299.297 228.163C297.949 229.571 296.57 230.949 295.163 232.297L296.2 233.381C294.777 234.744 293.324 236.076 291.842 237.376L290.853 236.249C289.388 237.534 287.895 238.788 286.375 240.01L287.315 241.179C285.779 242.413 284.216 243.614 282.627 244.782L281.739 243.573C280.169 244.726 278.572 245.845 276.951 246.931L277.786 248.177C276.149 249.273 274.488 250.334 272.802 251.359L272.022 250.077C270.359 251.089 268.672 252.065 266.962 253.005L267.685 254.319C265.96 255.268 264.212 256.179 262.443 257.054L261.779 255.709C260.034 256.571 258.268 257.396 256.482 258.183L257.087 259.555C255.287 260.349 253.466 261.104 251.626 261.82L251.082 260.422C249.27 261.127 247.438 261.794 245.589 262.422L246.071 263.843C244.209 264.474 242.329 265.067 240.432 265.619L240.013 264.179C238.146 264.722 236.263 265.226 234.364 265.689L234.719 267.146C232.81 267.612 230.885 268.037 228.944 268.421L228.653 266.949C226.747 267.327 224.826 267.663 222.891 267.959L223.118 269.441C221.178 269.738 219.224 269.993 217.258 270.206L217.096 268.714C215.168 268.923 213.226 269.091 211.274 269.217L211.371 270.714C209.413 270.841 207.445 270.926 205.466 270.968L205.434 269.469C204.458 269.49 203.48 269.5 202.5 269.5L199.522 269.5L199.522 271L193.566 271L193.566 269.5L187.61 269.5L187.61 271L181.654 271L181.654 269.5L175.698 269.5L175.698 271L169.743 271L169.743 269.5L163.787 269.5L163.787 271L157.831 271L157.831 269.5L151.875 269.5L151.875 271L145.919 271L145.919 269.5L139.963 269.5L139.963 271L134.007 271L134.007 269.5L128.051 269.5L128.051 271L122.096 271L122.096 269.5L116.14 269.5L116.14 271L110.184 271L110.184 269.5L104.228 269.5L104.228 271L98.272 271L98.272 269.5L92.3162 269.5L92.3162 271L86.3603 271L86.3603 269.5L80.4044 269.5L80.4044 271L74.4485 271L74.4485 269.5L68.4926 269.5L68.4926 271L62.5367 271L62.5367 269.5L56.5809 269.5L56.5809 271L50.625 271L50.625 269.5L44.6691 269.5L44.6691 271L38.7132 271L38.7132 269.5L32.7573 269.5L32.7573 271L26.8014 271L26.8014 269.5L20.8455 269.5L20.8455 271L14.8897 271L14.8897 269.5L8.93375 269.5L8.93375 271L2.97788 271L2.97788 269.5L1.5 269.5L1.5 268.054L2.45e-06 268.054L3.73758e-06 262.163L1.5 262.163L1.50001 256.272L5.02517e-06 256.272L6.31276e-06 250.38L1.50001 250.38L1.50001 244.489L7.60034e-06 244.489L8.88793e-06 238.598L1.50001 238.598L1.50001 232.706L1.01755e-05 232.706L1.14631e-05 226.815L1.50001 226.815L1.50001 220.924L1.27507e-05 220.924L1.40383e-05 215.033L1.50001 215.033L1.50002 209.141L1.53259e-05 209.141L1.66134e-05 203.25L1.50002 203.25L1.50002 197.359L1.7901e-05 197.359L1.91886e-05 191.467L1.50002 191.467L1.50002 185.576L2.04762e-05 185.576L2.17638e-05 179.685L1.50002 179.685L1.50002 173.793L2.30514e-05 173.793L2.4339e-05 167.902L1.50002 167.902L1.50003 162.011L2.56265e-05 162.011L2.69141e-05 156.12L1.50003 156.12L1.50003 150.228L2.82017e-05 150.228L2.94893e-05 144.337L1.50003 144.337L1.50003 138.446L3.07769e-05 138.446L3.20645e-05 132.554L1.50003 132.554L1.50003 126.663L3.33521e-05 126.663L3.46396e-05 120.772L1.50003 120.772L1.50004 114.88L3.59272e-05 114.88L3.72148e-05 108.989L1.50004 108.989L1.50004 103.098L3.85024e-05 103.098L3.979e-05 97.2064L1.50004 97.2064L1.50004 91.3151L4.10776e-05 91.3151L4.23652e-05 85.4238L1.50004 85.4238L1.50004 79.5325L4.36528e-05 79.5325L4.49403e-05 73.6412L1.50004 73.6412L1.50005 67.7499L4.62279e-05 67.7499L4.75155e-05 61.8586L1.50005 61.8586L1.50005 55.9673L4.88031e-05 55.9673L5.00907e-05 50.076L1.50005 50.076L1.50005 44.1846L5.13783e-05 44.1846L5.26659e-05 38.2933L1.50005 38.2933L1.50005 32.402L5.39535e-05 32.402L5.5241e-05 26.5107L1.50006 26.5107L1.50006 20.6194L5.65286e-05 20.6194L5.78162e-05 14.7281L1.50006 14.7281L1.50006 8.8368L5.91038e-05 8.8368L6.03914e-05 2.94551L1.50006 2.94551L1.50006 1.49993L2.978 1.49993L2.978 -7.32214e-05L8.93387 -7.19197e-05L8.93387 1.49993L14.8898 1.49993L14.8898 -7.0618e-05L20.8456 -6.93163e-05L20.8456 1.49993L26.8015 1.49993L26.8015 -6.80146e-05L32.7574 -6.67129e-05L32.7574 1.49993L38.7133 1.49993L38.7133 -6.54112e-05L44.6692 -6.41095e-05L44.6692 1.49994L50.625 1.49994L50.625 -6.28078e-05L56.5809 -6.15061e-05L56.5809 1.49994L62.5368 1.49994L62.5368 -6.02044e-05L68.4927 -5.89027e-05L68.4927 1.49994L74.4485 1.49994L74.4485 -5.7601e-05L80.4044 -5.62993e-05L80.4044 1.49994L86.3603 1.49995L86.3603 -5.49976e-05L92.3162 -5.36959e-05L92.3162 1.49995L98.2721 1.49995L98.2721 -5.23942e-05L104.228 -5.10925e-05L104.228 1.49995L110.184 1.49995L110.184 -4.97908e-05L116.14 -4.84891e-05L116.14 1.49995L122.096 1.49995L122.096 -4.71874e-05L128.051 -4.58857e-05L128.051 1.49995L134.007 1.49996L134.007 -4.4584e-05L139.963 -4.32823e-05L139.963 1.49996L145.919 1.49996L145.919 -4.19806e-05L151.875 -4.06789e-05L151.875 1.49996L157.831 1.49996L157.831 -3.93772e-05L163.787 -3.80755e-05L163.787 1.49996L169.743 1.49996L169.743 -3.67738e-05L175.699 -3.54721e-05L175.699 1.49996L181.654 1.49997L181.654 -3.41704e-05L187.61 -3.28687e-05L187.61 1.49997L193.566 1.49997L193.566 -3.1567e-05L199.522 -3.02653e-05L199.522 1.49997L202.5 1.49997Z" stroke="white" stroke-width="3" stroke-dasharray="6 6"/>
</svg>
