<svg width="90" height="90" viewBox="0 0 90 90" fill="none" xmlns="http://www.w3.org/2000/svg">
<rect width="90" height="90" fill="#DF385B"/>
<path d="M62.6 24.2998H48.2C47.5778 24.2998 47.0222 24.522 46.5333 24.9665C46.0444 25.4109 45.8 25.9887 45.8 26.6998V35.3665L36.4667 37.8998H27.6667C26.9556 37.8998 26.3333 38.1665 25.8 38.6998C25.2667 39.2331 25 39.8554 25 40.5665V46.1665C25 46.8776 25.2667 47.4776 25.8 47.9665C26.3333 48.4554 26.9556 48.6998 27.6667 48.6998H28.8667L29.8 56.4332C29.9778 57.4109 30.5111 58.0776 31.4 58.4332C31.8444 58.6109 32.3333 58.6776 32.8667 58.6332C33.4 58.5887 33.8444 58.4332 34.2 58.1665C35 57.5443 35.3111 56.6998 35.1333 55.6332L34.2 48.6998H36.4667L56.0667 54.2998C56.3333 54.2998 56.5778 54.2332 56.8 54.0998C57.0222 53.9665 57.1333 53.7665 57.1333 53.4998V38.4331H62.6C63.3111 38.4331 63.8889 38.1887 64.3333 37.6998C64.7778 37.2109 65 36.6554 65 36.0331V26.6998C65 25.9887 64.7778 25.4109 64.3333 24.9665C63.8889 24.522 63.3111 24.2998 62.6 24.2998ZM26.6 46.1665V40.5665C26.6 40.2998 26.6889 40.0554 26.8667 39.8331C27.0444 39.6109 27.3111 39.4998 27.6667 39.4998H35.8V47.2332H27.6667C27.3111 47.2332 27.0444 47.122 26.8667 46.8998C26.6889 46.6776 26.6 46.4332 26.6 46.1665ZM33.6667 55.8998C33.6667 56.3443 33.5111 56.6776 33.2 56.8998C32.8889 57.122 32.5111 57.1665 32.0667 57.0332C31.6222 56.8998 31.4 56.6109 31.4 56.1665L30.4667 48.6998H32.7333L33.6667 55.8998ZM55.5333 52.4332L37.4 47.3665V39.3665L46.0667 36.8331C46.2444 37.2776 46.5333 37.6554 46.9333 37.9665C47.3333 38.2776 47.7556 38.4331 48.2 38.4331H50.2L51.5333 39.7665C51.7111 39.8554 51.9111 39.8998 52.1333 39.8998C52.3556 39.8998 52.5111 39.8554 52.6 39.7665L53.9333 38.4331H55.5333V52.4332ZM63.4 36.0331C63.4 36.2109 63.3333 36.3887 63.2 36.5665C63.0667 36.7443 62.8667 36.8331 62.6 36.8331H53.6667C53.4889 36.8331 53.3111 36.922 53.1333 37.0998L52.0667 38.0331L51.1333 37.0998C50.9556 36.922 50.7778 36.8331 50.6 36.8331H48.2C48.0222 36.8331 47.8444 36.7443 47.6667 36.5665C47.4889 36.3887 47.4 36.2109 47.4 36.0331V26.6998C47.4 26.4331 47.4889 26.2331 47.6667 26.0998C47.8444 25.9665 48.0222 25.8998 48.2 25.8998H62.6C62.8667 25.8998 63.0667 25.9665 63.2 26.0998C63.3333 26.2331 63.4 26.4331 63.4 26.6998V36.0331ZM60.0667 27.4998H50.7333C50.3778 27.4998 50.1333 27.6109 50 27.8331C49.8667 28.0554 49.8667 28.2998 50 28.5665C50.1333 28.8331 50.3778 28.9665 50.7333 28.9665H60.0667C60.4222 28.9665 60.6667 28.8331 60.8 28.5665C60.9333 28.2998 60.9333 28.0554 60.8 27.8331C60.6667 27.6109 60.4222 27.4998 60.0667 27.4998ZM60.0667 30.5665H50.7333C50.3778 30.5665 50.1333 30.6998 50 30.9665C49.8667 31.2331 49.8667 31.4998 50 31.7665C50.1333 32.0331 50.3778 32.1665 50.7333 32.1665H60.0667C60.4222 32.1665 60.6667 32.0331 60.8 31.7665C60.9333 31.4998 60.9333 31.2331 60.8 30.9665C60.6667 30.6998 60.4222 30.5665 60.0667 30.5665ZM55.4 33.6331H50.7333C50.3778 33.722 50.1333 33.8776 50 34.0998C49.8667 34.322 49.8667 34.5665 50 34.8331C50.1333 35.0998 50.3778 35.2331 50.7333 35.2331H55.4C55.7556 35.2331 56 35.0998 56.1333 34.8331C56.2667 34.5665 56.2667 34.322 56.1333 34.0998C56 33.8776 55.7556 33.722 55.4 33.6331Z" fill="white"/>
</svg>
