<svg width="90" height="90" viewBox="0 0 90 90" fill="none" xmlns="http://www.w3.org/2000/svg">
<rect width="90" height="90" fill="#5AB48E"/>
<g clip-path="url(#clip0_1040_973)">
<path d="M40.7233 49.5001C40.6344 49.5001 40.5011 49.4557 40.3233 49.3668L36.0567 45.7668C35.8789 45.589 35.79 45.4112 35.79 45.2334C35.79 45.0557 35.8789 44.8779 36.0567 44.7001L40.3233 41.1001C40.5011 41.0112 40.6789 40.9668 40.8567 40.9668C41.0344 40.9668 41.1678 41.0334 41.2567 41.1668C41.3455 41.3001 41.39 41.4557 41.39 41.6334C41.39 41.8112 41.3455 41.9445 41.2567 42.0334L37.5233 45.2334L41.2567 48.4334C41.3455 48.5223 41.39 48.6557 41.39 48.8334C41.39 49.0112 41.3455 49.1668 41.2567 49.3001C41.1678 49.4334 40.99 49.5001 40.7233 49.5001ZM49.2567 49.5001C48.99 49.5001 48.8122 49.4334 48.7233 49.3001C48.6344 49.1668 48.59 49.0112 48.59 48.8334C48.59 48.6557 48.6344 48.5223 48.7233 48.4334L52.4567 45.2334L48.7233 42.0334C48.6344 41.9445 48.59 41.8112 48.59 41.6334C48.59 41.4557 48.6344 41.3001 48.7233 41.1668C48.8122 41.0334 48.9455 40.9668 49.1233 40.9668C49.3011 40.9668 49.4789 41.0112 49.6567 41.1001L53.9233 44.7001C54.1011 44.8779 54.19 45.0557 54.19 45.2334C54.19 45.4112 54.1011 45.589 53.9233 45.7668L49.6567 49.3668C49.4789 49.4557 49.3455 49.5001 49.2567 49.5001ZM43.5233 52.3001C43.4344 52.3001 43.3455 52.2779 43.2567 52.2334C43.1678 52.189 43.0567 52.1001 42.9233 51.9668C42.79 51.8334 42.7678 51.6779 42.8567 51.5001L45.5233 38.8334C45.5233 38.6557 45.6122 38.5223 45.79 38.4334C45.9678 38.3445 46.1455 38.3001 46.3233 38.3001C46.5011 38.3001 46.6344 38.389 46.7233 38.5668C46.8122 38.7445 46.8122 38.9223 46.7233 39.1001L44.0567 51.7668C44.0567 52.1223 43.8789 52.3001 43.5233 52.3001ZM60.59 59.1001H29.39C28.2344 59.1001 27.2122 58.6779 26.3233 57.8334C25.4344 56.989 24.99 55.9445 24.99 54.7001V28.3001C24.99 27.0557 25.4344 26.0112 26.3233 25.1668C27.2122 24.3223 28.2344 23.9001 29.39 23.9001H60.59C61.7455 23.9001 62.7678 24.3223 63.6567 25.1668C64.5455 26.0112 64.99 27.0557 64.99 28.3001V54.7001C64.99 55.9445 64.5455 56.989 63.6567 57.8334C62.7678 58.6779 61.7455 59.1001 60.59 59.1001ZM29.39 25.2334C28.59 25.2334 27.8789 25.5223 27.2567 26.1001C26.6344 26.6779 26.3233 27.4112 26.3233 28.3001V54.7001C26.3233 55.589 26.6344 56.3223 27.2567 56.9001C27.8789 57.4779 28.59 57.7668 29.39 57.7668H60.59C61.39 57.7668 62.1011 57.4779 62.7233 56.9001C63.3455 56.3223 63.6567 55.589 63.6567 54.7001V28.3001C63.6567 27.4112 63.3455 26.6779 62.7233 26.1001C62.1011 25.5223 61.39 25.2334 60.59 25.2334H29.39ZM64.3233 34.4334H25.6567C25.4789 34.4334 25.3233 34.3668 25.19 34.2334C25.0567 34.1001 24.99 33.9445 24.99 33.7668C24.99 33.589 25.0567 33.4334 25.19 33.3001C25.3233 33.1668 25.4789 33.1001 25.6567 33.1001H64.3233C64.5011 33.1001 64.6567 33.1668 64.79 33.3001C64.9233 33.4334 64.99 33.589 64.99 33.7668C64.99 33.9445 64.9233 34.1001 64.79 34.2334C64.6567 34.3668 64.5011 34.4334 64.3233 34.4334ZM36.3233 31.2334C35.7011 31.2334 35.19 31.0334 34.79 30.6334C34.39 30.2334 34.19 29.7445 34.19 29.1668C34.19 28.589 34.39 28.1001 34.79 27.7001C35.19 27.3001 35.6789 27.1001 36.2567 27.1001C36.8344 27.1001 37.3233 27.3001 37.7233 27.7001C38.1233 28.1001 38.3233 28.589 38.3233 29.1668C38.3233 29.7445 38.1233 30.2334 37.7233 30.6334C37.3233 31.0334 36.8567 31.2334 36.3233 31.2334ZM36.3233 28.4334C36.0567 28.4334 35.8567 28.5001 35.7233 28.6334C35.59 28.7668 35.5233 28.9445 35.5233 29.1668C35.5233 29.389 35.59 29.5668 35.7233 29.7001C35.8567 29.8334 36.0344 29.9001 36.2567 29.9001C36.4789 29.9001 36.6567 29.8334 36.79 29.7001C36.9233 29.5668 36.99 29.389 36.99 29.1668C36.99 28.9445 36.9233 28.7668 36.79 28.6334C36.6567 28.5001 36.5011 28.4334 36.3233 28.4334ZM29.79 31.2334C29.2567 31.2334 28.79 31.0334 28.39 30.6334C27.99 30.2334 27.79 29.7445 27.79 29.1668C27.79 28.589 27.99 28.1001 28.39 27.7001C28.79 27.3001 29.2789 27.1001 29.8567 27.1001C30.4344 27.1001 30.9233 27.3001 31.3233 27.7001C31.7233 28.1001 31.9233 28.589 31.9233 29.1668C31.9233 29.7445 31.7233 30.2334 31.3233 30.6334C30.9233 31.0334 30.4122 31.2334 29.79 31.2334ZM29.79 28.4334C29.6122 28.4334 29.4567 28.5001 29.3233 28.6334C29.19 28.7668 29.1233 28.9445 29.1233 29.1668C29.1233 29.389 29.19 29.5668 29.3233 29.7001C29.4567 29.8334 29.6344 29.9001 29.8567 29.9001C30.0789 29.9001 30.2567 29.8334 30.39 29.7001C30.5233 29.5668 30.59 29.389 30.59 29.1668C30.59 28.9445 30.5233 28.7668 30.39 28.6334C30.2567 28.5001 30.0567 28.4334 29.79 28.4334ZM42.7233 31.2334C42.1011 31.2334 41.59 31.0334 41.19 30.6334C40.79 30.2334 40.59 29.7445 40.59 29.1668C40.59 28.589 40.79 28.1001 41.19 27.7001C41.59 27.3001 42.0789 27.1001 42.6567 27.1001C43.2344 27.1001 43.7233 27.3001 44.1233 27.7001C44.5233 28.1001 44.7233 28.589 44.7233 29.1668C44.7233 29.7445 44.5233 30.2334 44.1233 30.6334C43.7233 31.0334 43.2567 31.2334 42.7233 31.2334ZM42.7233 28.4334C42.4567 28.4334 42.2567 28.5001 42.1233 28.6334C41.99 28.7668 41.9233 28.9445 41.9233 29.1668C41.9233 29.389 41.99 29.589 42.1233 29.7668C42.2567 29.9445 42.4344 30.0334 42.6567 30.0334C42.8789 30.0334 43.0789 29.9445 43.2567 29.7668C43.4344 29.589 43.5233 29.389 43.5233 29.1668C43.5233 28.9445 43.4344 28.7668 43.2567 28.6334C43.0789 28.5001 42.9011 28.4334 42.7233 28.4334Z" fill="white"/>
</g>
<defs>
<clipPath id="clip0_1040_973">
<rect width="40.02" height="40" fill="white" transform="matrix(1 0 0 -1 24.98 61.5)"/>
</clipPath>
</defs>
</svg>
